<svg width="24" height="24" viewBox="0 0 24 24" fill="none" xmlns="http://www.w3.org/2000/svg">
<path d="M17.9987 0.0049936L14.8865 0C11.3899 0 9.13033 2.31828 9.13033 5.90643V8.62969H6.00109C5.73069 8.62969 5.51172 8.84891 5.51172 9.11932V13.065C5.51172 13.3354 5.73094 13.5544 6.00109 13.5544H9.13033V23.5106C9.13033 23.781 9.3493 24 9.61971 24H13.7025C13.9729 24 14.1918 23.7808 14.1918 23.5106V13.5544H17.8507C18.1211 13.5544 18.34 13.3354 18.34 13.065L18.3415 9.11932C18.3415 8.98948 18.2898 8.86514 18.1982 8.77326C18.1066 8.68138 17.9817 8.62969 17.8519 8.62969H14.1918V6.32115C14.1918 5.21157 14.4563 4.64829 15.9017 4.64829L17.9982 4.64755C18.2684 4.64755 18.4873 4.42833 18.4873 4.15817V0.494367C18.4873 0.224462 18.2686 0.00549296 17.9987 0.0049936Z" fill="#FAFAFA"/>
</svg>
