<svg width="156" height="50" viewBox="0 0 156 50" fill="none" xmlns="http://www.w3.org/2000/svg">
<rect x="84" y="40" width="72" height="2" fill="#F82228"/>
<rect x="84" y="12" width="72" height="2" fill="#F82228"/>
<rect x="84" y="26" width="72" height="2" fill="#F82228"/>
<path d="M14.4336 24.9648H25.7617V39.7695C23.9258 40.3685 22.194 40.7852 20.5664 41.0195C18.9518 41.2669 17.2982 41.3906 15.6055 41.3906C11.2956 41.3906 8.0013 40.1276 5.72266 37.6016C3.45703 35.0625 2.32422 31.4232 2.32422 26.6836C2.32422 22.0742 3.63932 18.4805 6.26953 15.9023C8.91276 13.3242 12.5716 12.0352 17.2461 12.0352C20.1758 12.0352 23.0013 12.6211 25.7227 13.793L23.7109 18.6367C21.6276 17.5951 19.4596 17.0742 17.207 17.0742C14.5898 17.0742 12.4935 17.9531 10.918 19.7109C9.34245 21.4688 8.55469 23.832 8.55469 26.8008C8.55469 29.8997 9.1862 32.2695 10.4492 33.9102C11.7253 35.5378 13.5742 36.3516 15.9961 36.3516C17.2591 36.3516 18.5417 36.2214 19.8438 35.9609V30.0039H14.4336V24.9648ZM47.5781 41L46.7773 38.207H46.4648C45.8268 39.2227 44.9219 40.0104 43.75 40.5703C42.5781 41.1172 41.2435 41.3906 39.7461 41.3906C37.181 41.3906 35.2474 40.707 33.9453 39.3398C32.6432 37.9596 31.9922 35.9805 31.9922 33.4023V19.1641H37.9492V31.918C37.9492 33.4935 38.2292 34.6784 38.7891 35.4727C39.349 36.2539 40.2409 36.6445 41.4648 36.6445C43.1315 36.6445 44.3359 36.0911 45.0781 34.9844C45.8203 33.8646 46.1914 32.0156 46.1914 29.4375V19.1641H52.1484V41H47.5781ZM58.1445 13.5195C58.1445 11.5794 59.2253 10.6094 61.3867 10.6094C63.5482 10.6094 64.6289 11.5794 64.6289 13.5195C64.6289 14.444 64.3555 15.1667 63.8086 15.6875C63.2747 16.1953 62.4674 16.4492 61.3867 16.4492C59.2253 16.4492 58.1445 15.4727 58.1445 13.5195ZM64.3555 41H58.3984V19.1641H64.3555V41ZM79.8242 36.6445C80.8659 36.6445 82.1159 36.4167 83.5742 35.9609V40.3945C82.0898 41.0586 80.2669 41.3906 78.1055 41.3906C75.7227 41.3906 73.9844 40.7917 72.8906 39.5938C71.8099 38.3828 71.2695 36.5729 71.2695 34.1641V23.6367H68.418V21.1172L71.6992 19.125L73.418 14.5156H77.2266V19.1641H83.3398V23.6367H77.2266V34.1641C77.2266 35.0104 77.4609 35.6354 77.9297 36.0391C78.4115 36.4427 79.043 36.6445 79.8242 36.6445ZM101.875 41L100.723 38.0312H100.566C99.5638 39.2943 98.5286 40.1732 97.4609 40.668C96.4062 41.1497 95.026 41.3906 93.3203 41.3906C91.224 41.3906 89.5703 40.7917 88.3594 39.5938C87.1615 38.3958 86.5625 36.6901 86.5625 34.4766C86.5625 32.1589 87.3698 30.4531 88.9844 29.3594C90.612 28.2526 93.0599 27.6406 96.3281 27.5234L100.117 27.4062V26.4492C100.117 24.2357 98.9844 23.1289 96.7188 23.1289C94.974 23.1289 92.9232 23.6562 90.5664 24.7109L88.5938 20.6875C91.1068 19.3724 93.8932 18.7148 96.9531 18.7148C99.8828 18.7148 102.129 19.3529 103.691 20.6289C105.254 21.9049 106.035 23.8451 106.035 26.4492V41H101.875ZM100.117 30.8828L97.8125 30.9609C96.0807 31.013 94.7917 31.3255 93.9453 31.8984C93.099 32.4714 92.6758 33.3438 92.6758 34.5156C92.6758 36.1953 93.6393 37.0352 95.5664 37.0352C96.9466 37.0352 98.0469 36.638 98.8672 35.8438C99.7005 35.0495 100.117 33.9948 100.117 32.6797V30.8828ZM124.375 18.7539C125.182 18.7539 125.853 18.8125 126.387 18.9297L125.938 24.5156C125.456 24.3854 124.87 24.3203 124.18 24.3203C122.279 24.3203 120.794 24.8086 119.727 25.7852C118.672 26.7617 118.145 28.1289 118.145 29.8867V41H112.188V19.1641H116.699L117.578 22.8359H117.871C118.548 21.612 119.46 20.6289 120.605 19.8867C121.764 19.1315 123.021 18.7539 124.375 18.7539ZM140.236 41H134.181V17.4844H126.427V12.4453H147.99V17.4844H140.236V41Z" fill="#FAFAFA"/>
</svg>
