<svg width="16" height="42" viewBox="0 0 16 42" fill="none" xmlns="http://www.w3.org/2000/svg">
<path fill-rule="evenodd" clip-rule="evenodd" d="M13.7071 34.6569C14.0976 34.2663 14.0976 33.6332 13.7071 33.2426C13.3166 32.8521 12.6834 32.8521 12.2929 33.2426L9.05017 36.4854L9.05017 29C9.05017 28.4477 8.60246 28 8.05017 28C7.49789 28 7.05017 28.4477 7.05017 29L7.05017 36.4852L3.80761 33.2426C3.41709 32.8521 2.78392 32.8521 2.3934 33.2426C2.00287 33.6332 2.00287 34.2663 2.3934 34.6569L7.34315 39.6066C7.73367 39.9971 8.36683 39.9971 8.75736 39.6066L13.7071 34.6569Z" fill="#112233"/>
<path fill-rule="evenodd" clip-rule="evenodd" d="M8 0C3.58172 0 0 3.58172 0 8V12C0 16.4183 3.58172 20 8 20C12.4183 20 16 16.4183 16 12V8C16 3.58172 12.4183 0 8 0ZM2 8C2 4.68629 4.68629 2 8 2C11.3137 2 14 4.68629 14 8V12C14 15.3137 11.3137 18 8 18C4.68629 18 2 15.3137 2 12V8ZM9 11V6H7V11H9Z" fill="#112233"/>
</svg>
