<svg width="28" height="25" viewBox="0 0 28 25" fill="none" xmlns="http://www.w3.org/2000/svg">
<path d="M6.40743 3.35603L6.49293 3.75H6.89606H26.2899C26.377 3.75 26.4634 3.79179 26.5209 3.86995L26.9234 3.57331L26.5208 3.86968C26.5787 3.94848 26.5986 4.05308 26.5712 4.15135C26.5712 4.15137 26.5712 4.15139 26.5712 4.1514L23.3974 15.5263C23.3585 15.6657 23.2389 15.75 23.1161 15.75H8.73031C8.72408 15.75 8.71829 15.7501 8.71304 15.7503C7.99539 15.7585 7.43458 16.3545 7.43458 17.0625C7.43458 17.7753 8.00335 18.375 8.72804 18.375H23.1161C23.2671 18.375 23.4095 18.5036 23.4095 18.6875C23.4095 18.8714 23.2671 19 23.1161 19H8.72804C7.70278 19 6.84767 18.1416 6.84767 17.0625C6.84767 16.2625 7.32057 15.5789 7.98583 15.2828L8.3574 15.1174L8.27112 14.7199L5.40643 1.51905L5.321 1.125H4.91779H0.793458C0.642451 1.125 0.5 0.996381 0.5 0.8125C0.5 0.628619 0.642451 0.5 0.793458 0.5H5.55421C5.68304 0.5 5.80774 0.592742 5.84027 0.742429L6.40743 3.35603ZM25.7196 5.00938L25.8966 4.375H25.238H7.24857H6.62843L6.75995 4.98104L8.87583 14.731L8.96133 15.125H9.36446H22.5175H22.8971L22.9991 14.7594L25.7196 5.00938Z" fill="#112233" stroke="#112233" stroke-width="0.999999"/>
<path d="M10.2913 24.4167C9.07414 24.4167 8.08301 23.4255 8.08301 22.2083C8.08301 20.9911 9.07414 20 10.2913 20C11.5085 20 12.4997 20.9911 12.4997 22.2083C12.4997 23.4255 11.5085 24.4167 10.2913 24.4167ZM11.6941 22.2083C11.6941 21.4345 11.0652 20.8056 10.2913 20.8056C9.5175 20.8056 8.88856 21.4345 8.88856 22.2083C8.88856 22.9822 9.5175 23.6111 10.2913 23.6111C11.0652 23.6111 11.6941 22.9822 11.6941 22.2083Z" fill="#112233" stroke="#112233" stroke-width="0.999999"/>
<path d="M21.1253 24.4167C19.9081 24.4167 18.917 23.4255 18.917 22.2083C18.917 20.9911 19.9081 20 21.1253 20C22.3425 20 23.3337 20.9911 23.3337 22.2083C23.3337 23.4255 22.3425 24.4167 21.1253 24.4167ZM22.5281 22.2083C22.5281 21.4345 21.8992 20.8056 21.1253 20.8056C20.3515 20.8056 19.7225 21.4345 19.7225 22.2083C19.7225 22.9822 20.3515 23.6111 21.1253 23.6111C21.8992 23.6111 22.5281 22.9822 22.5281 22.2083Z" fill="#112233" stroke="#112233" stroke-width="0.999999"/>
</svg>
